<svg width="659" height="143" viewBox="0 0 659 143" fill="none" xmlns="http://www.w3.org/2000/svg">
<path d="M34.7063 92.3283C33.7692 94.9221 30.8927 96.2874 28.4053 95.0963C19.3703 90.77 11.805 83.8088 6.7427 75.076C0.842141 64.8973 -1.28001 52.9638 0.749561 41.3748C2.77913 29.7858 8.83042 19.2837 17.8389 11.716C26.8474 4.14827 38.236 -0.000328853 50.0014 1.95337e-08C61.7668 0.000328892 73.1552 4.14956 82.1632 11.7178C91.1713 19.286 97.222 29.7885 99.2509 41.3775C101.28 52.9666 99.157 64.9 93.2559 75.0784C88.1931 83.8109 80.6274 90.7717 71.5922 95.0975C69.1047 96.2884 66.2283 94.923 65.2913 92.3292V92.3292C64.3543 89.7354 65.7165 86.9004 68.1735 85.6478C75.009 82.1631 80.7325 76.7675 84.6159 70.0692C89.3384 61.9239 91.0372 52.3741 89.4135 43.0998C87.7898 33.8255 82.9477 25.4209 75.7389 19.3643C68.5301 13.3078 59.4164 9.98731 50.0011 9.98705C40.5858 9.98678 31.4719 13.3067 24.2628 19.3629C17.0537 25.419 12.2111 33.8234 10.5869 43.0976C8.9627 52.3718 10.661 61.9217 15.383 70.0673C19.266 76.7657 24.9892 82.1617 31.8245 85.6468C34.2814 86.8995 35.6435 89.7346 34.7063 92.3283V92.3283Z" fill="#1C1F33"/>
<path d="M40.8238 75.397C40.2615 76.9532 38.5356 77.7724 37.0432 77.0578C31.6222 74.462 27.083 70.2853 24.0456 65.0456C20.5053 58.9384 19.232 51.7783 20.4497 44.8249C21.6675 37.8715 25.2983 31.5702 30.7033 27.0296C36.1084 22.489 42.9416 19.9998 50.0008 20C57.0601 20.0002 63.8931 22.4897 69.2979 27.0307C74.7028 31.5716 78.3332 37.8731 79.5506 44.8265C80.7679 51.78 79.4942 58.94 75.9535 65.0471C72.9158 70.2866 68.3764 74.463 62.9553 77.0585C61.4628 77.7731 59.737 76.9538 59.1748 75.3975V75.3975C58.6126 73.8412 59.4299 72.1402 60.9041 71.3887C65.0054 69.2979 68.4395 66.0605 70.7696 62.0415C73.603 57.1543 74.6223 51.4244 73.6481 45.8599C72.6739 40.2953 69.7686 35.2525 65.4433 31.6186C61.1181 27.9847 55.6499 25.9924 50.0007 25.9922C44.3515 25.9921 38.8832 27.984 34.5577 31.6177C30.2322 35.2514 27.3266 40.294 26.3521 45.8586C25.3776 51.4231 26.3966 57.153 29.2298 62.0404C31.5596 66.0594 34.9935 69.297 39.0947 71.3881C40.5689 72.1397 41.3861 73.8408 40.8238 75.397V75.397Z" fill="#53C594"/>
<path d="M50 66L50 125" stroke="#1C1F33" stroke-width="6" stroke-linecap="round"/>
<path d="M69 125H31" stroke="#1C1F33" stroke-width="6" stroke-linecap="round"/>
<path d="M65 140H35" stroke="#1C1F33" stroke-width="6" stroke-linecap="round"/>
<path d="M31 90L31 110" stroke="#1C1F33" stroke-width="8" stroke-linecap="round"/>
<path d="M69 90L69 110" stroke="#1C1F33" stroke-width="8" stroke-linecap="round"/>
<path d="M128.216 100.568L128.182 85.6705H130.159L148.977 64.6364H163.398L140.25 90.4091H137.693L128.216 100.568ZM116.966 117V47.1818H129.307V117H116.966ZM149.83 117L132.784 93.1705L141.102 84.4773L164.591 117H149.83ZM183.963 86.3182V117H171.622V64.6364H183.418V73.5341H184.031C185.236 70.6023 187.156 68.2727 189.793 66.5455C192.452 64.8182 195.736 63.9545 199.645 63.9545C203.259 63.9545 206.406 64.7273 209.088 66.2727C211.793 67.8182 213.884 70.0568 215.361 72.9886C216.861 75.9205 217.599 79.4773 217.577 83.6591V117H205.236V85.5682C205.236 82.0682 204.327 79.3295 202.509 77.3523C200.713 75.375 198.224 74.3864 195.043 74.3864C192.884 74.3864 190.963 74.8636 189.281 75.8182C187.622 76.75 186.315 78.1023 185.361 79.875C184.429 81.6477 183.963 83.7955 183.963 86.3182ZM252.963 118.023C247.849 118.023 243.418 116.898 239.668 114.648C235.918 112.398 233.009 109.25 230.94 105.205C228.895 101.159 227.872 96.4318 227.872 91.0227C227.872 85.6136 228.895 80.875 230.94 76.8068C233.009 72.7386 235.918 69.5795 239.668 67.3295C243.418 65.0795 247.849 63.9545 252.963 63.9545C258.077 63.9545 262.509 65.0795 266.259 67.3295C270.009 69.5795 272.906 72.7386 274.952 76.8068C277.02 80.875 278.054 85.6136 278.054 91.0227C278.054 96.4318 277.02 101.159 274.952 105.205C272.906 109.25 270.009 112.398 266.259 114.648C262.509 116.898 258.077 118.023 252.963 118.023ZM253.031 108.136C255.804 108.136 258.122 107.375 259.986 105.852C261.849 104.307 263.236 102.239 264.145 99.6477C265.077 97.0568 265.543 94.1705 265.543 90.9886C265.543 87.7841 265.077 84.8864 264.145 82.2955C263.236 79.6818 261.849 77.6023 259.986 76.0568C258.122 74.5114 255.804 73.7386 253.031 73.7386C250.19 73.7386 247.827 74.5114 245.94 76.0568C244.077 77.6023 242.679 79.6818 241.747 82.2955C240.838 84.8864 240.384 87.7841 240.384 90.9886C240.384 94.1705 240.838 97.0568 241.747 99.6477C242.679 102.239 244.077 104.307 245.94 105.852C247.827 107.375 250.19 108.136 253.031 108.136ZM297.835 117L283.04 64.6364H295.619L304.824 101.455H305.301L314.71 64.6364H327.153L336.562 101.25H337.074L346.142 64.6364H358.756L343.926 117H331.074L321.256 81.6136H320.54L310.722 117H297.835Z" fill="#1C1F33"/>
<path d="M367.918 117V47.1818H394.645C399.69 47.1818 403.884 47.9773 407.224 49.5682C410.588 51.1364 413.099 53.2841 414.759 56.0114C416.44 58.7386 417.281 61.8295 417.281 65.2841C417.281 68.125 416.736 70.5568 415.645 72.5795C414.554 74.5795 413.088 76.2045 411.247 77.4545C409.406 78.7045 407.349 79.6023 405.077 80.1477V80.8295C407.554 80.9659 409.929 81.7273 412.202 83.1136C414.497 84.4773 416.372 86.4091 417.827 88.9091C419.281 91.4091 420.009 94.4318 420.009 97.9773C420.009 101.591 419.134 104.841 417.384 107.727C415.634 110.591 412.997 112.852 409.474 114.511C405.952 116.17 401.52 117 396.179 117H367.918ZM380.565 106.432H394.168C398.759 106.432 402.065 105.557 404.088 103.807C406.134 102.034 407.156 99.7614 407.156 96.9886C407.156 94.9205 406.645 93.0568 405.622 91.3977C404.599 89.7159 403.145 88.3977 401.259 87.4432C399.372 86.4659 397.122 85.9773 394.509 85.9773H380.565V106.432ZM380.565 76.875H393.077C395.259 76.875 397.224 76.4773 398.974 75.6818C400.724 74.8636 402.099 73.7159 403.099 72.2386C404.122 70.7386 404.634 68.9659 404.634 66.9205C404.634 64.2159 403.679 61.9886 401.77 60.2386C399.884 58.4886 397.077 57.6136 393.349 57.6136H380.565V76.875ZM453.648 118.023C448.398 118.023 443.864 116.932 440.045 114.75C436.25 112.545 433.33 109.432 431.284 105.409C429.239 101.364 428.216 96.6023 428.216 91.125C428.216 85.7386 429.239 81.0114 431.284 76.9432C433.352 72.8523 436.239 69.6705 439.943 67.3977C443.648 65.1023 448 63.9545 453 63.9545C456.227 63.9545 459.273 64.4773 462.136 65.5227C465.023 66.5455 467.568 68.1364 469.773 70.2955C472 72.4545 473.75 75.2045 475.023 78.5455C476.295 81.8636 476.932 85.8182 476.932 90.4091V94.1932H434.011V85.875H465.102C465.08 83.5114 464.568 81.4091 463.568 79.5682C462.568 77.7045 461.17 76.2386 459.375 75.1705C457.602 74.1023 455.534 73.5682 453.17 73.5682C450.648 73.5682 448.432 74.1818 446.523 75.4091C444.614 76.6136 443.125 78.2045 442.057 80.1818C441.011 82.1364 440.477 84.2841 440.455 86.625V93.8864C440.455 96.9318 441.011 99.5455 442.125 101.727C443.239 103.886 444.795 105.545 446.795 106.705C448.795 107.841 451.136 108.409 453.818 108.409C455.614 108.409 457.239 108.159 458.693 107.659C460.148 107.136 461.409 106.375 462.477 105.375C463.545 104.375 464.352 103.136 464.898 101.659L476.42 102.955C475.693 106 474.307 108.659 472.261 110.932C470.239 113.182 467.648 114.932 464.489 116.182C461.33 117.409 457.716 118.023 453.648 118.023ZM513.52 64.6364V74.1818H483.418V64.6364H513.52ZM490.849 52.0909H503.19V101.25C503.19 102.909 503.44 104.182 503.94 105.068C504.463 105.932 505.145 106.523 505.986 106.841C506.827 107.159 507.759 107.318 508.781 107.318C509.554 107.318 510.259 107.261 510.895 107.148C511.554 107.034 512.054 106.932 512.395 106.841L514.474 116.489C513.815 116.716 512.872 116.966 511.645 117.239C510.44 117.511 508.963 117.67 507.213 117.716C504.122 117.807 501.338 117.341 498.861 116.318C496.384 115.273 494.418 113.659 492.963 111.477C491.531 109.295 490.827 106.568 490.849 103.295V52.0909ZM549.989 64.6364V74.1818H519.886V64.6364H549.989ZM527.318 52.0909H539.659V101.25C539.659 102.909 539.909 104.182 540.409 105.068C540.932 105.932 541.614 106.523 542.455 106.841C543.295 107.159 544.227 107.318 545.25 107.318C546.023 107.318 546.727 107.261 547.364 107.148C548.023 107.034 548.523 106.932 548.864 106.841L550.943 116.489C550.284 116.716 549.341 116.966 548.114 117.239C546.909 117.511 545.432 117.67 543.682 117.716C540.591 117.807 537.807 117.341 535.33 116.318C532.852 115.273 530.886 113.659 529.432 111.477C528 109.295 527.295 106.568 527.318 103.295V52.0909ZM582.929 118.023C577.679 118.023 573.145 116.932 569.327 114.75C565.531 112.545 562.611 109.432 560.565 105.409C558.52 101.364 557.497 96.6023 557.497 91.125C557.497 85.7386 558.52 81.0114 560.565 76.9432C562.634 72.8523 565.52 69.6705 569.224 67.3977C572.929 65.1023 577.281 63.9545 582.281 63.9545C585.509 63.9545 588.554 64.4773 591.418 65.5227C594.304 66.5455 596.849 68.1364 599.054 70.2955C601.281 72.4545 603.031 75.2045 604.304 78.5455C605.577 81.8636 606.213 85.8182 606.213 90.4091V94.1932H563.293V85.875H594.384C594.361 83.5114 593.849 81.4091 592.849 79.5682C591.849 77.7045 590.452 76.2386 588.656 75.1705C586.884 74.1023 584.815 73.5682 582.452 73.5682C579.929 73.5682 577.713 74.1818 575.804 75.4091C573.895 76.6136 572.406 78.2045 571.338 80.1818C570.293 82.1364 569.759 84.2841 569.736 86.625V93.8864C569.736 96.9318 570.293 99.5455 571.406 101.727C572.52 103.886 574.077 105.545 576.077 106.705C578.077 107.841 580.418 108.409 583.099 108.409C584.895 108.409 586.52 108.159 587.974 107.659C589.429 107.136 590.69 106.375 591.759 105.375C592.827 104.375 593.634 103.136 594.179 101.659L605.702 102.955C604.974 106 603.588 108.659 601.543 110.932C599.52 113.182 596.929 114.932 593.77 116.182C590.611 117.409 586.997 118.023 582.929 118.023ZM616.653 117V64.6364H628.619V73.3636H629.165C630.119 70.3409 631.756 68.0114 634.074 66.375C636.415 64.7159 639.085 63.8864 642.085 63.8864C642.767 63.8864 643.528 63.9205 644.369 63.9886C645.233 64.0341 645.949 64.1136 646.517 64.2273V75.5795C645.994 75.3977 645.165 75.2386 644.028 75.1023C642.915 74.9432 641.835 74.8636 640.79 74.8636C638.54 74.8636 636.517 75.3523 634.722 76.3295C632.949 77.2841 631.551 78.6136 630.528 80.3182C629.506 82.0227 628.994 83.9886 628.994 86.2159V117H616.653Z" fill="#53C594"/>
</svg>
